<mxfile host="app.diagrams.net" modified="2024-05-07T04:37:00.769Z" agent="Mozilla/5.0 (Macintosh; Intel Mac OS X 10_15_7) AppleWebKit/537.36 (KHTML, like Gecko) Chrome/123.0.0.0 Safari/537.36" version="24.3.1" etag="xrcFvQyK75XxINEuPZck" type="github">
  <diagram name="페이지-1" id="iEVDUDHzYuANpHzPA3-B">
    <mxGraphModel>
      <root>
        <mxCell id="0" />
        <mxCell id="1" parent="0" />
      </root>
    </mxGraphModel>
  </diagram>
</mxfile>
